<svg id="visual" viewBox="0 0 960 540" width="960" height="540" xmlns="http://www.w3.org/2000/svg" xmlns:xlink="http://www.w3.org/1999/xlink" version="1.1"><rect x="0" y="0" width="960" height="540" fill="#001220"></rect><path d="M0 164L20 171.2C40 178.3 80 192.7 120 206.3C160 220 200 233 240 233C280 233 320 220 360 209.3C400 198.7 440 190.3 480 195.2C520 200 560 218 600 221.8C640 225.7 680 215.3 720 209.8C760 204.3 800 203.7 840 205.2C880 206.7 920 210.3 940 212.2L960 214L960 541L940 541C920 541 880 541 840 541C800 541 760 541 720 541C680 541 640 541 600 541C560 541 520 541 480 541C440 541 400 541 360 541C320 541 280 541 240 541C200 541 160 541 120 541C80 541 40 541 20 541L0 541Z" fill="#33439a"></path><path d="M0 278L20 271.8C40 265.7 80 253.3 120 250.7C160 248 200 255 240 263.2C280 271.3 320 280.7 360 281.8C400 283 440 276 480 281.3C520 286.7 560 304.3 600 299.2C640 294 680 266 720 269.5C760 273 800 308 840 320.8C880 333.7 920 324.3 940 319.7L960 315L960 541L940 541C920 541 880 541 840 541C800 541 760 541 720 541C680 541 640 541 600 541C560 541 520 541 480 541C440 541 400 541 360 541C320 541 280 541 240 541C200 541 160 541 120 541C80 541 40 541 20 541L0 541Z" fill="#4e6eb7"></path><path d="M0 336L20 334.3C40 332.7 80 329.3 120 330.2C160 331 200 336 240 339.5C280 343 320 345 360 346.7C400 348.3 440 349.7 480 353.8C520 358 560 365 600 371.2C640 377.3 680 382.7 720 386C760 389.3 800 390.7 840 393C880 395.3 920 398.7 940 400.3L960 402L960 541L940 541C920 541 880 541 840 541C800 541 760 541 720 541C680 541 640 541 600 541C560 541 520 541 480 541C440 541 400 541 360 541C320 541 280 541 240 541C200 541 160 541 120 541C80 541 40 541 20 541L0 541Z" fill="#759ad0"></path><path d="M0 435L20 431C40 427 80 419 120 419.2C160 419.3 200 427.7 240 433.3C280 439 320 442 360 447.8C400 453.7 440 462.3 480 465.3C520 468.3 560 465.7 600 461.2C640 456.7 680 450.3 720 451.3C760 452.3 800 460.7 840 459.3C880 458 920 447 940 441.5L960 436L960 541L940 541C920 541 880 541 840 541C800 541 760 541 720 541C680 541 640 541 600 541C560 541 520 541 480 541C440 541 400 541 360 541C320 541 280 541 240 541C200 541 160 541 120 541C80 541 40 541 20 541L0 541Z" fill="#a6c5e6"></path></svg>